<mxfile host="app.diagrams.net" modified="2024-02-01T17:31:46.015Z" agent="Mozilla/5.0 (X11; Ubuntu; Linux x86_64; rv:122.0) Gecko/20100101 Firefox/122.0" etag="L02GBo3EewySPnJCQkot" version="23.1.1" type="device">
  <diagram name="Page-1" id="6hGQRv9N-xN35FH2C01U">
    <mxGraphModel dx="1728" dy="1761" grid="1" gridSize="10" guides="1" tooltips="1" connect="1" arrows="1" fold="1" page="1" pageScale="1" pageWidth="850" pageHeight="1100" math="0" shadow="0">
      <root>
        <mxCell id="0" />
        <mxCell id="1" parent="0" />
        <mxCell id="z10W_7JiJNSDTyv3OePO-29" value="Log Monitoring" style="swimlane;whiteSpace=wrap;html=1;" parent="1" vertex="1">
          <mxGeometry x="320" y="-680" width="480" height="150" as="geometry" />
        </mxCell>
        <mxCell id="z10W_7JiJNSDTyv3OePO-25" value="ELASTIC SEARCH" style="rounded=0;whiteSpace=wrap;html=1;" parent="z10W_7JiJNSDTyv3OePO-29" vertex="1">
          <mxGeometry x="30" y="60" width="120" height="60" as="geometry" />
        </mxCell>
        <mxCell id="z10W_7JiJNSDTyv3OePO-27" value="LOGSTASH" style="rounded=0;whiteSpace=wrap;html=1;" parent="z10W_7JiJNSDTyv3OePO-29" vertex="1">
          <mxGeometry x="180" y="60" width="120" height="60" as="geometry" />
        </mxCell>
        <mxCell id="z10W_7JiJNSDTyv3OePO-26" value="KIBANA" style="rounded=0;whiteSpace=wrap;html=1;" parent="z10W_7JiJNSDTyv3OePO-29" vertex="1">
          <mxGeometry x="330" y="60" width="120" height="60" as="geometry" />
        </mxCell>
        <mxCell id="z10W_7JiJNSDTyv3OePO-30" value="Health and Hardware Monitoring" style="swimlane;whiteSpace=wrap;html=1;" parent="1" vertex="1">
          <mxGeometry x="320" y="-490" width="330" height="150" as="geometry" />
        </mxCell>
        <mxCell id="z10W_7JiJNSDTyv3OePO-24" value="PROMETHEUS" style="rounded=0;whiteSpace=wrap;html=1;" parent="z10W_7JiJNSDTyv3OePO-30" vertex="1">
          <mxGeometry x="30" y="60" width="120" height="60" as="geometry" />
        </mxCell>
        <mxCell id="z10W_7JiJNSDTyv3OePO-22" value="GRAFANA" style="rounded=0;whiteSpace=wrap;html=1;" parent="z10W_7JiJNSDTyv3OePO-30" vertex="1">
          <mxGeometry x="180" y="60" width="120" height="60" as="geometry" />
        </mxCell>
        <mxCell id="z10W_7JiJNSDTyv3OePO-31" value="Trace and Health Monitoring" style="swimlane;whiteSpace=wrap;html=1;" parent="1" vertex="1">
          <mxGeometry x="320" y="-860" width="190" height="150" as="geometry" />
        </mxCell>
        <mxCell id="z10W_7JiJNSDTyv3OePO-23" value="ZIPKIN" style="rounded=0;whiteSpace=wrap;html=1;" parent="z10W_7JiJNSDTyv3OePO-31" vertex="1">
          <mxGeometry x="35" y="60" width="120" height="60" as="geometry" />
        </mxCell>
        <mxCell id="12aSX1B6gdGvbx64BBU--2" style="edgeStyle=orthogonalEdgeStyle;rounded=0;orthogonalLoop=1;jettySize=auto;html=1;" edge="1" parent="1" source="12aSX1B6gdGvbx64BBU--1" target="z10W_7JiJNSDTyv3OePO-29">
          <mxGeometry relative="1" as="geometry" />
        </mxCell>
        <mxCell id="12aSX1B6gdGvbx64BBU--3" style="edgeStyle=orthogonalEdgeStyle;rounded=0;orthogonalLoop=1;jettySize=auto;html=1;entryX=0;entryY=0.5;entryDx=0;entryDy=0;" edge="1" parent="1" source="12aSX1B6gdGvbx64BBU--1" target="z10W_7JiJNSDTyv3OePO-31">
          <mxGeometry relative="1" as="geometry" />
        </mxCell>
        <mxCell id="12aSX1B6gdGvbx64BBU--4" style="edgeStyle=orthogonalEdgeStyle;rounded=0;orthogonalLoop=1;jettySize=auto;html=1;entryX=0;entryY=0.5;entryDx=0;entryDy=0;" edge="1" parent="1" source="12aSX1B6gdGvbx64BBU--1" target="z10W_7JiJNSDTyv3OePO-30">
          <mxGeometry relative="1" as="geometry" />
        </mxCell>
        <mxCell id="12aSX1B6gdGvbx64BBU--1" value="CONSUMER REQUEST" style="rounded=0;whiteSpace=wrap;html=1;" vertex="1" parent="1">
          <mxGeometry x="50" y="-635" width="120" height="60" as="geometry" />
        </mxCell>
      </root>
    </mxGraphModel>
  </diagram>
</mxfile>
